HIERARCHY
ROOT COM
{
  OFFSET -10.5682 89.9488 26.191
  CHANNELS 6 Xposition Yposition Zposition Zrotation Xrotation Yrotation
  JOINT Spine
  {
    OFFSET 0 10.0313 -3.64775
    CHANNELS 3 Zrotation Xrotation Yrotation
    JOINT Spine1
    {
      OFFSET 0 14.268 -0.0123585
      CHANNELS 3 Zrotation Xrotation Yrotation
      JOINT Spine2
      {
        OFFSET 0 15.5534 -0.0118018
        CHANNELS 3 Zrotation Xrotation Yrotation
        JOINT Neck
        {
          OFFSET 0 15.3437 -0.00507736
          CHANNELS 3 Zrotation Xrotation Yrotation
          JOINT Head
          {
            OFFSET 0 6.5943 0
            CHANNELS 3 Zrotation Xrotation Yrotation
            End Site
            {
              OFFSET 0 0 0
            }
          }
          JOINT Leftcollar
          {
            OFFSET 4.25429 -1.5481 1.99067
            CHANNELS 3 Zrotation Xrotation Yrotation
            JOINT LeftArm
            {
              OFFSET 16.8259 0 0
              CHANNELS 3 Zrotation Xrotation Yrotation
              JOINT LeftForeArm
              {
                OFFSET 0 -28.058 0
                CHANNELS 3 Zrotation Xrotation Yrotation
                JOINT LeftHand
                {
                  OFFSET 0 -24.7253 0
                  CHANNELS 3 Zrotation Xrotation Yrotation
                  End Site
                  {
                    OFFSET -2.98615 -9.94619 -0.575321
                  }
                }
              }
            }
          }
          JOINT RightCollar
          {
            OFFSET -4.25428 -1.54809 1.99069
            CHANNELS 3 Zrotation Xrotation Yrotation
            JOINT RightArm
            {
              OFFSET -16.8259 0 0
              CHANNELS 3 Zrotation Xrotation Yrotation
              JOINT RightForeArm
              {
                OFFSET 0 -28.058 0
                CHANNELS 3 Zrotation Xrotation Yrotation
                JOINT RightHand
                {
                  OFFSET 0 -24.7253 0
                  CHANNELS 3 Zrotation Xrotation Yrotation
                  End Site
                  {
                    OFFSET 2.98615 -9.94618 -0.575319
                  }
                }
              }
            }
          }
        }
      }
    }
  }
  JOINT LeftUpLeg
  {
    OFFSET 9.94275 0 0
    CHANNELS 3 Zrotation Xrotation Yrotation
    JOINT LeftLeg
    {
      OFFSET 0 -45.973 0
      CHANNELS 3 Zrotation Xrotation Yrotation
      JOINT LeftFoot
      {
        OFFSET 0 -43.1634 0
        CHANNELS 3 Zrotation Xrotation Yrotation
        JOINT LeftToe
        {
          OFFSET 0 0 15.6286
          CHANNELS 3 Zrotation Xrotation Yrotation
          End Site
          {
            OFFSET 0 0 0
          }
        }
      }
    }
  }
  JOINT RightUpLeg
  {
    OFFSET -9.94275 0 0
    CHANNELS 3 Zrotation Xrotation Yrotation
    JOINT RightLeg
    {
      OFFSET 0 -45.973 0
      CHANNELS 3 Zrotation Xrotation Yrotation
      JOINT RightFoot
      {
        OFFSET 0 -43.1634 0
        CHANNELS 3 Zrotation Xrotation Yrotation
        JOINT RightToe
        {
          OFFSET 0 0 15.6286
          CHANNELS 3 Zrotation Xrotation Yrotation
          End Site
          {
            OFFSET 0 0 0
          }
        }
      }
    }
  }
}
MOTION
Frames:	5
Frame Time:	0.0333333
-14.8605 92.4843 4.40985 -10.702 -11.7701 153.759 -5.2973 -15.3735 -6.59717e-015 2.93657e-017 2.11209e-015 -3.99975 -1.30452e-016 4.96962e-017 -6.36111e-015 -6.21202e-018 8.69683e-017 -6.36111e-015 -1.2424e-017 9.93923e-017 -6.36111e-015 -1.2424e-017 9.93923e-017 -6.36111e-015 21.5419 -4.50539 -31.7737 3.28972e-015 -24.9703 -3.50851e-015 6.04305e-014 -3.7003e-030 90 -1.2424e-017 9.93923e-017 -6.36111e-015 -20.2925 3.26307 20.4118 3.53635e-015 -27.0447 -4.4638e-015 -1.11319e-014 -6.81635e-031 -90 -10.7278 -19.6396 11.2728 -2.73287e-016 16.1233 -3.31078e-015 -1.65399e-008 -3.27707 -12.0936 1.59028e-015 -1.59028e-015 6.36111e-015 -12.1663 -36.9419 -9.01752 -1.84266e-014 65.1445 3.78339e-014 9.68038e-011 0.460477 0.903679 -3.18055e-015 6.36111e-015 3.18055e-015 
-13.8003 92.5038 1.47604 -10.5381 -12.2976 154.084 -4.79221 -15.4132 -3.29921e-015 1.15304e-015 -7.45443e-016 -5.3527 -4.96962e-017 0 -6.36111e-015 2.75869e-033 4.96962e-017 -3.18055e-015 2.75869e-033 4.96962e-017 -3.18055e-015 2.75869e-033 4.96962e-017 -3.18055e-015 22.8985 -8.74602 -30.0215 -4.78817e-015 -26.3146 3.54825e-015 -1.59028e-014 9.73764e-031 90 2.75869e-033 4.96962e-017 -3.18055e-015 -19.5216 6.23481 20.2481 -1.47735e-016 -24.3967 3.4924e-015 9.34288e-015 5.72086e-031 -90 -10.6179 -17.2951 11.7352 -4.55859e-016 14.5861 -1.64324e-015 -7.63872e-009 -4.17466 -12.8835 7.95139e-016 1.59028e-015 -6.36111e-015 -11.8093 -40.4748 -9.36852 -9.54107e-015 59.0353 1.85452e-014 0.00568349 -1.57271 0.904244 3.18055e-015 0 3.18055e-015 
-12.7281 92.3248 -1.40507 -10.6585 -12.7206 154.373 -4.59371 -15.3443 3.29812e-015 1.68865e-016 -6.95746e-016 -6.66547 9.93923e-017 0 -0 1.49089e-016 0 -0 9.93923e-017 9.93923e-017 -0 9.93923e-017 9.93923e-017 -0 24.3387 -12.5559 -27.2221 -1.70303e-015 -28.1669 -3.6078e-015 -4.45278e-014 2.72654e-030 90 9.93923e-017 9.93923e-017 -0 -18.8274 8.73923 19.7395 8.59737e-016 -21.5694 3.42005e-015 -1.77912e-014 -1.0894e-030 -90 -10.7312 -15.1786 12.2344 7.95139e-016 13.485 -0 -5.14049e-008 -5.24946 -13.8353 -7.95139e-016 -1.59028e-015 -3.18055e-015 -11.8981 -43.3002 -10.5066 1.03349e-014 51.3357 -1.52726e-014 2.99017e-011 -2.05555 0.295122 1.59028e-015 3.18055e-015 -3.18055e-015 
-11.5591 92.0128 -4.41486 -10.6281 -12.8249 154.357 -4.24282 -14.9381 -3.2918e-015 1.02941e-015 1.98785e-016 -7.62577 1.98785e-016 2.98177e-016 -6.36111e-015 9.93923e-017 9.93923e-017 -6.36111e-015 0 0 -0 0 0 -0 25.7058 -15.6566 -24.2448 5.02695e-015 -30.1363 3.67765e-015 4.13472e-014 -2.53179e-030 90 0 0 -0 -18.393 10.8014 18.903 1.07715e-015 -18.7095 3.358e-015 4.91992e-015 3.01258e-031 -90 -10.7232 -12.9007 12.4188 -9.62183e-016 12.955 1.63181e-015 -4.28781e-008 -6.54431 -14.0931 -7.95139e-016 0 -0 -11.358 -44.7145 -12.0374 4.06509e-015 41.6388 -8.51157e-015 8.66373e-010 -1.62179 -0.400806 7.95139e-016 1.59028e-015 3.18055e-015 
-10.2732 91.5702 -7.47203 -10.8151 -13.4036 154.659 -4.06726 -15.1775 3.2955e-015 1.02393e-015 -1.19271e-015 -8.70819 -0 -3.97569e-016 -0 -1.98785e-016 1.98785e-016 -0 -1.98785e-016 0 -0 -1.98785e-016 0 -0 27.1353 -18.3342 -22.2669 8.35231e-015 -32.0488 3.75244e-015 -2.54444e-014 1.55802e-030 90 -1.98785e-016 0 -0 -17.993 12.7404 17.9759 1.59028e-015 -16.2182 -0 1.63003e-014 9.98108e-031 -90 -10.6996 -11.1997 12.7135 1.98785e-016 12.7302 -0 -1.65646e-008 -7.70047 -14.7134 -1.59028e-015 0 -0 -10.931 -45.5209 -15.3355 6.36111e-015 30.5295 -0 -1.86795e-011 -0.649873 1.31255 1.49089e-016 -2.48481e-016 -6.36111e-015 
